<svg width="60" height="60" viewBox="0 0 60 60" fill="none" xmlns="http://www.w3.org/2000/svg">
<rect x="14" y="10" width="21" height="3" fill="#C8182F"/>
<rect x="14" y="17" width="21" height="3" fill="#C8182F"/>
<rect x="14" y="25" width="21" height="3" fill="#C8182F"/>
<rect x="9" y="4" width="30" height="40" stroke="#C8182F" stroke-width="2"/>
<mask id="path-6-inside-1" fill="white">
<path fill-rule="evenodd" clip-rule="evenodd" d="M43 8H38V43H13V48H38H40H43V8Z"/>
</mask>
<path d="M38 8V7H37V8H38ZM43 8H44V7H43V8ZM38 43V44H39V43H38ZM13 43V42H12V43H13ZM13 48H12V49H13V48ZM43 48V49H44V48H43ZM38 9H43V7H38V9ZM39 43V8H37V43H39ZM13 44H38V42H13V44ZM14 48V43H12V48H14ZM38 47H13V49H38V47ZM40 47H38V49H40V47ZM43 47H40V49H43V47ZM42 8V48H44V8H42Z" fill="#C8182F" mask="url(#path-6-inside-1)"/>
<mask id="path-8-inside-2" fill="white">
<path fill-rule="evenodd" clip-rule="evenodd" d="M46 12H42V47H17V51H42H44H46V12Z"/>
</mask>
<path d="M42 12V11H41V12H42ZM46 12H47V11H46V12ZM42 47V48H43V47H42ZM17 47V46H16V47H17ZM17 51H16V52H17V51ZM46 51V52H47V51H46ZM42 13H46V11H42V13ZM43 47V12H41V47H43ZM17 48H42V46H17V48ZM18 51V47H16V51H18ZM42 50H17V52H42V50ZM44 50H42V52H44V50ZM46 50H44V52H46V50ZM45 12V51H47V12H45Z" fill="#C8182F" mask="url(#path-8-inside-2)"/>
<mask id="path-10-inside-3" fill="white">
<path fill-rule="evenodd" clip-rule="evenodd" d="M49 15H45V50H20V54H45H47H49V15Z"/>
</mask>
<path d="M45 15V14H44V15H45ZM49 15H50V14H49V15ZM45 50V51H46V50H45ZM20 50V49H19V50H20ZM20 54H19V55H20V54ZM49 54V55H50V54H49ZM45 16H49V14H45V16ZM46 50V15H44V50H46ZM20 51H45V49H20V51ZM21 54V50H19V54H21ZM45 53H20V55H45V53ZM47 53H45V55H47V53ZM49 53H47V55H49V53ZM48 15V54H50V15H48Z" fill="#C8182F" mask="url(#path-10-inside-3)"/>
<mask id="path-12-inside-4" fill="white">
<path fill-rule="evenodd" clip-rule="evenodd" d="M52 18H48V53H23V57H48H50H52V18Z"/>
</mask>
<path d="M48 18V17H47V18H48ZM52 18H53V17H52V18ZM48 53V54H49V53H48ZM23 53V52H22V53H23ZM23 57H22V58H23V57ZM52 57V58H53V57H52ZM48 19H52V17H48V19ZM49 53V18H47V53H49ZM23 54H48V52H23V54ZM24 57V53H22V57H24ZM48 56H23V58H48V56ZM50 56H48V58H50V56ZM52 56H50V58H52V56ZM51 18V57H53V18H51Z" fill="#C8182F" mask="url(#path-12-inside-4)"/>
</svg>
