<svg width="60" height="60" viewBox="0 0 60 60" fill="none" xmlns="http://www.w3.org/2000/svg">
<rect x="12" y="7" width="21" height="3" fill="#C8182F"/>
<rect x="36" y="21" width="14" height="3" fill="#C8182F"/>
<rect x="12" y="14" width="21" height="3" fill="#C8182F"/>
<rect x="36" y="28" width="14" height="3" fill="#C8182F"/>
<rect x="12" y="22" width="21" height="3" fill="#C8182F"/>
<rect x="36" y="36" width="14" height="3" fill="#C8182F"/>
<rect x="7" y="1" width="30" height="40" stroke="#C8182F" stroke-width="2"/>
<mask id="path-9-inside-1" fill="white">
<path fill-rule="evenodd" clip-rule="evenodd" d="M55 14H36V40H25V56H36H38H55V14Z"/>
</mask>
<path d="M36 14V12H34V14H36ZM55 14H57V12H55V14ZM36 40V42H38V40H36ZM25 40V38H23V40H25ZM25 56H23V58H25V56ZM55 56V58H57V56H55ZM36 16H55V12H36V16ZM38 40V14H34V40H38ZM25 42H36V38H25V42ZM27 56V40H23V56H27ZM36 54H25V58H36V54ZM38 54H36V58H38V54ZM55 54H38V58H55V54ZM53 14V56H57V14H53Z" fill="#C8182F" mask="url(#path-9-inside-1)"/>
</svg>
