<svg width="60" height="60" viewBox="0 0 60 60" fill="none" xmlns="http://www.w3.org/2000/svg">
<rect x="4" y="22" width="45" height="23" stroke="#C8182F" stroke-width="2"/>
<mask id="path-3-inside-1" fill="white">
<path fill-rule="evenodd" clip-rule="evenodd" d="M56.8673 39.5246L56.9359 14.0239L56.8667 14.0237V14.0001H48.0948L48.0693 14V14.0001H10V22.8667H48.0454L48.0006 39.5007L56.8673 39.5246Z"/>
</mask>
<path d="M56.9359 14.0239L58.9359 14.0293L58.9413 12.0293L56.9413 12.0239L56.9359 14.0239ZM56.8673 39.5246L56.8619 41.5245L58.8619 41.5299L58.8672 39.5299L56.8673 39.5246ZM56.8667 14.0237H54.8667V16.0183L56.8613 16.0237L56.8667 14.0237ZM56.8667 14.0001H58.8667V12.0001H56.8667V14.0001ZM48.0948 14.0001L48.0894 16.0001H48.0948V14.0001ZM48.0693 14L48.0747 12L46.0693 11.9946V14H48.0693ZM48.0693 14.0001V16.0001H50.0693V14.0001H48.0693ZM10 14.0001V12.0001H8V14.0001H10ZM10 22.8667H8V24.8667H10V22.8667ZM48.0454 22.8667L50.0454 22.8721L50.0508 20.8667H48.0454V22.8667ZM48.0006 39.5007L46.0006 39.4953L45.9952 41.4953L47.9952 41.5007L48.0006 39.5007ZM54.9359 14.0185L54.8673 39.5192L58.8672 39.5299L58.9359 14.0293L54.9359 14.0185ZM56.8613 16.0237L56.9305 16.0239L56.9413 12.0239L56.8721 12.0237L56.8613 16.0237ZM54.8667 14.0001V14.0237H58.8667V14.0001H54.8667ZM48.0948 16.0001H56.8667V12.0001H48.0948V16.0001ZM48.0639 16L48.0894 16.0001L48.1002 12.0001L48.0747 12L48.0639 16ZM50.0693 14.0001V14H46.0693V14.0001H50.0693ZM10 16.0001H48.0693V12.0001H10V16.0001ZM12 22.8667V14.0001H8V22.8667H12ZM48.0454 20.8667H10V24.8667H48.0454V20.8667ZM50.0006 39.5061L50.0454 22.8721L46.0454 22.8613L46.0006 39.4953L50.0006 39.5061ZM56.8726 37.5246L48.006 37.5007L47.9952 41.5007L56.8619 41.5245L56.8726 37.5246Z" fill="#C8182F" mask="url(#path-3-inside-1)"/>
<rect x="24.1638" y="27" width="0.730769" height="12.6667" fill="#C8182F"/>
<rect x="27.0854" y="36.0127" width="0.730769" height="5.35897" transform="rotate(90 27.0854 36.0127)" fill="#C8182F"/>
<mask id="path-7-inside-2" fill="white">
<path fill-rule="evenodd" clip-rule="evenodd" d="M28.8803 27H24.1638V32.6026H28.8803H29.1142V32.5913C30.4367 32.4636 31.4733 31.2632 31.4733 29.8013C31.4733 28.3393 30.4367 27.139 29.1142 27.0112V27H28.8803Z"/>
</mask>
<path d="M24.1638 27V26H23.1638V27H24.1638ZM24.1638 32.6026H23.1638V33.6026H24.1638V32.6026ZM29.1142 32.6026V33.6026H30.1142V32.6026H29.1142ZM29.1142 32.5913L29.018 31.596L28.1142 31.6832V32.5913H29.1142ZM29.1142 27.0112H28.1142V27.9193L29.018 28.0066L29.1142 27.0112ZM29.1142 27H30.1142V26H29.1142V27ZM24.1638 28H28.8803V26H24.1638V28ZM25.1638 32.6026V27H23.1638V32.6026H25.1638ZM28.8803 31.6026H24.1638V33.6026H28.8803V31.6026ZM29.1142 31.6026H28.8803V33.6026H29.1142V31.6026ZM28.1142 32.5913V32.6026H30.1142V32.5913H28.1142ZM30.4733 29.8013C30.4733 30.8072 29.7712 31.5232 29.018 31.596L29.2103 33.5867C31.1021 33.404 32.4733 31.7193 32.4733 29.8013H30.4733ZM29.018 28.0066C29.7712 28.0793 30.4733 28.7954 30.4733 29.8013H32.4733C32.4733 27.8833 31.1021 26.1986 29.2103 26.0159L29.018 28.0066ZM28.1142 27V27.0112H30.1142V27H28.1142ZM28.8803 28H29.1142V26H28.8803V28Z" fill="#C8182F" mask="url(#path-7-inside-2)"/>
</svg>
