<svg width="60" height="60" viewBox="0 0 60 60" fill="none" xmlns="http://www.w3.org/2000/svg">
<path d="M42.1042 11.175C41.9375 11.175 41.7708 11.125 41.625 11.025C37.625 8.55 34.1667 7.5 30.0208 7.5C25.8958 7.5 21.9792 8.675 18.4167 11.025C17.9167 11.35 17.2917 11.125 17 10.525C16.7292 9.925 16.9167 9.15 17.4167 8.825C21.2917 6.3 25.5417 5 30.0208 5C34.4583 5 38.3333 6.175 42.5833 8.8C43.1042 9.125 43.2917 9.875 43.0208 10.475C42.8333 10.925 42.4792 11.175 42.1042 11.175ZM12.2917 24.3C12.0833 24.3 11.875 24.225 11.6875 24.075C11.2083 23.675 11.1042 22.9 11.4375 22.325C13.5 18.825 16.125 16.075 19.25 14.15C25.7917 10.1 34.1667 10.075 40.7292 14.125C43.8542 16.05 46.4792 18.775 48.5417 22.25C48.875 22.8 48.7708 23.6 48.2917 24C47.8125 24.4 47.1667 24.275 46.8333 23.7C44.9583 20.55 42.5833 18.075 39.7708 16.35C33.7917 12.675 26.1458 12.675 20.1875 16.375C17.3542 18.125 14.9792 20.625 13.1042 23.775C12.9375 24.125 12.625 24.3 12.2917 24.3ZM25.3125 54.475C25.0417 54.475 24.7708 54.35 24.5833 54.1C22.7708 51.925 21.7917 50.525 20.3958 47.5C18.9583 44.425 18.2083 40.675 18.2083 36.65C18.2083 29.225 23.5 23.175 30 23.175C36.5 23.175 41.7917 29.225 41.7917 36.65C41.7917 37.35 41.3333 37.9 40.75 37.9C40.1667 37.9 39.7083 37.35 39.7083 36.65C39.7083 30.6 35.3542 25.675 30 25.675C24.6458 25.675 20.2917 30.6 20.2917 36.65C20.2917 40.25 20.9583 43.575 22.2292 46.275C23.5625 49.15 24.4792 50.375 26.0833 52.325C26.4792 52.825 26.4792 53.6 26.0833 54.1C25.8542 54.35 25.5833 54.475 25.3125 54.475ZM40.25 49.85C37.7708 49.85 35.5833 49.1 33.7917 47.625C30.6875 45.1 28.8333 41 28.8333 36.65C28.8333 35.95 29.2917 35.4 29.875 35.4C30.4583 35.4 30.9167 35.95 30.9167 36.65C30.9167 40.175 32.4167 43.5 34.9583 45.55C36.4375 46.75 38.1667 47.325 40.25 47.325C40.75 47.325 41.5833 47.25 42.4167 47.075C42.9792 46.95 43.5208 47.4 43.625 48.1C43.7292 48.775 43.3542 49.425 42.7708 49.55C41.5833 49.825 40.5417 49.85 40.25 49.85ZM36.0625 55C35.9792 55 35.875 54.975 35.7917 54.95C32.4792 53.85 30.3125 52.375 28.0417 49.7C25.125 46.225 23.5208 41.6 23.5208 36.65C23.5208 32.6 26.3958 29.3 29.9375 29.3C33.4792 29.3 36.3542 32.6 36.3542 36.65C36.3542 39.325 38.2917 41.5 40.6875 41.5C43.0833 41.5 45.0208 39.325 45.0208 36.65C45.0208 27.225 38.25 19.575 29.9167 19.575C24 19.575 18.5833 23.525 16.1458 29.65C15.3333 31.675 14.9167 34.05 14.9167 36.65C14.9167 38.6 15.0625 41.675 16.3125 45.675C16.5208 46.325 16.25 47.05 15.7083 47.275C15.1667 47.525 14.5625 47.175 14.375 46.55C13.3542 43.275 12.8542 40.025 12.8542 36.65C12.8542 33.65 13.3333 30.925 14.2708 28.55C17.0417 21.575 23.1875 17.05 29.9167 17.05C39.3958 17.05 47.1042 25.825 47.1042 36.625C47.1042 40.675 44.2292 43.975 40.6875 43.975C37.1458 43.975 34.2708 40.675 34.2708 36.625C34.2708 33.95 32.3333 31.775 29.9375 31.775C27.5417 31.775 25.6042 33.95 25.6042 36.625C25.6042 40.9 26.9792 44.9 29.5 47.9C31.4792 50.25 33.375 51.55 36.3125 52.525C36.875 52.7 37.1875 53.4 37.0417 54.05C36.9375 54.625 36.5 55 36.0625 55Z" fill="#C8182F"/>
</svg>
