<svg width="60" height="60" viewBox="0 0 60 60" fill="none" xmlns="http://www.w3.org/2000/svg">
<path d="M11 18.9208C11 9.02341 19.0234 1 28.9208 1C39.4579 1 48 9.54205 48 20.0792V24.1363C48 34.3536 39.7173 42.6363 29.5 42.6363C19.2827 42.6363 11 34.3536 11 24.1363V18.9208Z" stroke="#C8182F" stroke-width="2"/>
<path d="M20.8153 58.0425L15.3291 46.7306L19.4417 42.754L27.5727 54.6232L20.8153 58.0425Z" stroke="#C8182F" stroke-width="2"/>
<path d="M37.4229 58.6487L42.9091 47.3368L38.7966 43.3602L30.6656 55.2294L37.4229 58.6487Z" stroke="#C8182F" stroke-width="2"/>
<path d="M10.6094 19.7273C12.5898 16.5455 16.5508 10.3031 16.5508 10.7879C16.5508 11.394 31.4805 25.3333 41.0781 10.7879L48.3906 19.7273" stroke="#C8182F" stroke-width="2"/>
<circle cx="23" cy="25" r="2" fill="#C8182F"/>
<circle cx="35" cy="25" r="2" fill="#C8182F"/>
<path d="M23 32C25.5 36.5 31.5 37.5 35.5 32" stroke="#C8182F"/>
</svg>
