<svg width="60" height="60" viewBox="0 0 60 60" fill="none" xmlns="http://www.w3.org/2000/svg">
<rect x="20" y="3" width="3" height="52" fill="#C8182F"/>
<rect x="32" y="40" width="3" height="22" transform="rotate(90 32 40)" fill="#C8182F"/>
<mask id="path-4-inside-1" fill="white">
<path fill-rule="evenodd" clip-rule="evenodd" d="M39.3549 3H20V26H39.3549H40.3225V25.9531C45.7482 25.425 50 20.4989 50 14.5C50 8.5011 45.7482 3.57501 40.3225 3.04687V3H39.3549Z"/>
</mask>
<path d="M20 3V0H17V3H20ZM20 26H17V29H20V26ZM40.3225 26V29H43.3225V26H40.3225ZM40.3225 25.9531L40.0318 22.9672L37.3225 23.231V25.9531H40.3225ZM40.3225 3.04687H37.3225V5.76903L40.0318 6.03276L40.3225 3.04687ZM40.3225 3H43.3225V0H40.3225V3ZM20 6H39.3549V0H20V6ZM23 26V3H17V26H23ZM39.3549 23H20V29H39.3549V23ZM40.3225 23H39.3549V29H40.3225V23ZM37.3225 25.9531V26H43.3225V25.9531H37.3225ZM47 14.5C47 19.1313 43.7508 22.6052 40.0318 22.9672L40.6131 28.939C47.7455 28.2447 53 21.8665 53 14.5H47ZM40.0318 6.03276C43.7508 6.39476 47 9.86874 47 14.5H53C53 7.13346 47.7455 0.755254 40.6131 0.0609834L40.0318 6.03276ZM37.3225 3V3.04687H43.3225V3H37.3225ZM39.3549 6H40.3225V0H39.3549V6Z" fill="#C8182F" mask="url(#path-4-inside-1)"/>
</svg>
