<svg width="60" height="61" viewBox="0 0 60 61" fill="none" xmlns="http://www.w3.org/2000/svg">
<path d="M52 3.5C52 2.39543 51.1046 1.5 50 1.5H9V59.4775L50.0444 58.5654C51.1314 58.5413 52 57.6532 52 56.5659V3.5Z" stroke="#C8182F" stroke-width="2"/>
<path d="M29.9883 11C23.5483 11 18.3333 16.2267 18.3333 22.6667C18.3333 29.1067 23.5483 34.3333 29.9883 34.3333C36.4399 34.3333 41.6666 29.1067 41.6666 22.6667C41.6666 16.2267 36.4399 11 29.9883 11ZM38.0733 18H34.6316C34.2583 16.5417 33.7216 15.1417 33.0216 13.8467C35.1683 14.5817 36.9533 16.075 38.0733 18ZM29.9999 13.38C30.9683 14.78 31.7266 16.3317 32.2283 18H27.7716C28.2733 16.3317 29.0316 14.78 29.9999 13.38ZM20.9699 25C20.7833 24.2533 20.6666 23.4717 20.6666 22.6667C20.6666 21.8617 20.7833 21.08 20.9699 20.3333H24.9133C24.8199 21.1033 24.7499 21.8733 24.7499 22.6667C24.7499 23.46 24.8199 24.23 24.9133 25H20.9699ZM21.9266 27.3333H25.3683C25.7416 28.7917 26.2783 30.1917 26.9783 31.4867C24.8316 30.7517 23.0466 29.27 21.9266 27.3333ZM25.3683 18H21.9266C23.0466 16.0633 24.8316 14.5817 26.9783 13.8467C26.2783 15.1417 25.7416 16.5417 25.3683 18ZM29.9999 31.9533C29.0316 30.5533 28.2733 29.0017 27.7716 27.3333H32.2283C31.7266 29.0017 30.9683 30.5533 29.9999 31.9533ZM32.7299 25H27.2699C27.1649 24.23 27.0833 23.46 27.0833 22.6667C27.0833 21.8733 27.1649 21.0917 27.2699 20.3333H32.7299C32.8349 21.0917 32.9166 21.8733 32.9166 22.6667C32.9166 23.46 32.8349 24.23 32.7299 25ZM33.0216 31.4867C33.7216 30.1917 34.2583 28.7917 34.6316 27.3333H38.0733C36.9533 29.2583 35.1683 30.7517 33.0216 31.4867ZM35.0866 25C35.1799 24.23 35.2499 23.46 35.2499 22.6667C35.2499 21.8733 35.1799 21.1033 35.0866 20.3333H39.0299C39.2166 21.08 39.3333 21.8617 39.3333 22.6667C39.3333 23.4717 39.2166 24.2533 39.0299 25H35.0866Z" fill="#C8182F"/>
<path d="M19.392 42.376C20.4693 42.376 21.2587 42.76 21.76 43.528C22.2613 44.296 22.512 45.3787 22.512 46.776C22.512 48.0987 22.224 49.1653 21.648 49.976C21.072 50.7867 20.256 51.192 19.2 51.192C18.2613 51.192 17.5253 50.872 16.992 50.232V54.232L15.52 54.408V42.568H16.784L16.896 43.704C17.2053 43.2773 17.5787 42.952 18.016 42.728C18.4533 42.4933 18.912 42.376 19.392 42.376ZM18.848 49.992C20.2347 49.992 20.928 48.92 20.928 46.776C20.928 44.6213 20.2933 43.544 19.024 43.544C18.608 43.544 18.2293 43.6667 17.888 43.912C17.5467 44.1573 17.248 44.472 16.992 44.856V48.968C17.2053 49.2987 17.472 49.5547 17.792 49.736C18.112 49.9067 18.464 49.992 18.848 49.992ZM30.5438 49.032C30.5438 49.3733 30.6024 49.6293 30.7198 49.8C30.8371 49.96 31.0131 50.0827 31.2478 50.168L30.9118 51.192C30.4744 51.1387 30.1224 51.016 29.8558 50.824C29.5891 50.632 29.3918 50.3333 29.2638 49.928C28.6984 50.7707 27.8611 51.192 26.7518 51.192C25.9198 51.192 25.2638 50.9573 24.7838 50.488C24.3038 50.0187 24.0638 49.4053 24.0638 48.648C24.0638 47.752 24.3838 47.064 25.0238 46.584C25.6744 46.104 26.5918 45.864 27.7758 45.864H29.0718V45.24C29.0718 44.6427 28.9278 44.216 28.6398 43.96C28.3518 43.704 27.9091 43.576 27.3118 43.576C26.6931 43.576 25.9358 43.7253 25.0398 44.024L24.6718 42.952C25.7171 42.568 26.6878 42.376 27.5838 42.376C28.5758 42.376 29.3171 42.6213 29.8078 43.112C30.2984 43.592 30.5438 44.28 30.5438 45.176V49.032ZM27.0878 50.088C27.9304 50.088 28.5918 49.6507 29.0718 48.776V46.84H27.9678C26.4104 46.84 25.6318 47.416 25.6318 48.568C25.6318 49.0693 25.7544 49.448 25.9998 49.704C26.2451 49.96 26.6078 50.088 27.0878 50.088ZM35.6986 42.376C36.2746 42.376 36.792 42.456 37.2506 42.616C37.7093 42.776 38.1466 43.016 38.5626 43.336L37.9386 44.264C37.5546 44.0187 37.1866 43.8373 36.8346 43.72C36.4933 43.6027 36.1306 43.544 35.7466 43.544C35.2666 43.544 34.888 43.6453 34.6106 43.848C34.3333 44.04 34.1946 44.3067 34.1946 44.648C34.1946 44.9893 34.3226 45.256 34.5786 45.448C34.8453 45.64 35.32 45.8267 36.0026 46.008C36.9413 46.2427 37.64 46.5627 38.0986 46.968C38.568 47.3733 38.8026 47.928 38.8026 48.632C38.8026 49.464 38.4773 50.0987 37.8266 50.536C37.1866 50.9733 36.4026 51.192 35.4746 51.192C34.1946 51.192 33.1333 50.824 32.2906 50.088L33.0746 49.192C33.7893 49.736 34.5786 50.008 35.4426 50.008C35.9973 50.008 36.4346 49.896 36.7546 49.672C37.0853 49.4373 37.2506 49.1227 37.2506 48.728C37.2506 48.44 37.192 48.2107 37.0746 48.04C36.9573 47.8587 36.7546 47.704 36.4666 47.576C36.1786 47.4373 35.7573 47.2933 35.2026 47.144C34.3066 46.9093 33.656 46.5947 33.2506 46.2C32.856 45.8053 32.6586 45.304 32.6586 44.696C32.6586 44.2587 32.7866 43.864 33.0426 43.512C33.3093 43.1493 33.672 42.872 34.1306 42.68C34.6 42.4773 35.1226 42.376 35.6986 42.376ZM43.0111 42.376C43.5871 42.376 44.1045 42.456 44.5631 42.616C45.0218 42.776 45.4591 43.016 45.8751 43.336L45.2511 44.264C44.8671 44.0187 44.4991 43.8373 44.1471 43.72C43.8058 43.6027 43.4431 43.544 43.0591 43.544C42.5791 43.544 42.2005 43.6453 41.9231 43.848C41.6458 44.04 41.5071 44.3067 41.5071 44.648C41.5071 44.9893 41.6351 45.256 41.8911 45.448C42.1578 45.64 42.6325 45.8267 43.3151 46.008C44.2538 46.2427 44.9525 46.5627 45.4111 46.968C45.8805 47.3733 46.1151 47.928 46.1151 48.632C46.1151 49.464 45.7898 50.0987 45.1391 50.536C44.4991 50.9733 43.7151 51.192 42.7871 51.192C41.5071 51.192 40.4458 50.824 39.6031 50.088L40.3871 49.192C41.1018 49.736 41.8911 50.008 42.7551 50.008C43.3098 50.008 43.7471 49.896 44.0671 49.672C44.3978 49.4373 44.5631 49.1227 44.5631 48.728C44.5631 48.44 44.5045 48.2107 44.3871 48.04C44.2698 47.8587 44.0671 47.704 43.7791 47.576C43.4911 47.4373 43.0698 47.2933 42.5151 47.144C41.6191 46.9093 40.9685 46.5947 40.5631 46.2C40.1685 45.8053 39.9711 45.304 39.9711 44.696C39.9711 44.2587 40.0991 43.864 40.3551 43.512C40.6218 43.1493 40.9845 42.872 41.4431 42.68C41.9125 42.4773 42.4351 42.376 43.0111 42.376Z" fill="#C8182F"/>
</svg>
