<svg width="60" height="61" viewBox="0 0 60 61" fill="none" xmlns="http://www.w3.org/2000/svg">
<path d="M51 59.5H10V1H39.5858L51 12.4142V59.5Z" stroke="#C8182F" stroke-width="2"/>
<path d="M17.496 35.976C18.8613 35.976 19.9173 36.264 20.664 36.84C21.4107 37.4053 21.784 38.2533 21.784 39.384C21.784 40.5893 21.3947 41.4853 20.616 42.072C19.8373 42.6587 18.8027 42.952 17.512 42.952H16.12V47H14.6V35.976H17.496ZM17.448 41.752C18.3333 41.752 19.0053 41.5813 19.464 41.24C19.9333 40.8987 20.168 40.2853 20.168 39.4C20.168 38.6107 19.9333 38.04 19.464 37.688C19.0053 37.336 18.344 37.16 17.48 37.16H16.12V41.752H17.448ZM26.2009 35.976C27.8649 35.976 29.1982 36.3653 30.2009 37.144C31.2142 37.912 31.7209 39.3413 31.7209 41.432C31.7209 43.4693 31.2142 44.9093 30.2009 45.752C29.1982 46.584 27.9769 47 26.5369 47H23.8969V35.976H26.2009ZM25.4169 37.192V45.8H26.6489C27.6729 45.8 28.5049 45.4853 29.1449 44.856C29.7849 44.2267 30.1049 43.0853 30.1049 41.432C30.1049 40.2693 29.9395 39.3787 29.6089 38.76C29.2782 38.1307 28.8569 37.7147 28.3449 37.512C27.8329 37.2987 27.2302 37.192 26.5369 37.192H25.4169ZM34.1938 47V35.976H40.0498L39.8738 37.192H35.7138V40.952H39.3138V42.152H35.7138V47H34.1938Z" fill="#C8182F"/>
<path d="M41 2.8434L49.5112 11H41V2.8434Z" stroke="#C8182F" stroke-width="2"/>
</svg>
