<svg width="60" height="60" viewBox="0 0 60 60" fill="none" xmlns="http://www.w3.org/2000/svg">
<path d="M1 8.15941C1 6.89732 2.15465 5.95073 3.39223 6.19825L29 11.3198V55.2802L2.60777 50.0018C1.67292 49.8148 1 48.9939 1 48.0406V8.15941Z" stroke="#C8182F" stroke-width="2"/>
<path d="M59 7.67064C59 6.40609 57.8411 5.45894 56.6019 5.71066L29 11.3173V55.3495L57.2785 51.3729C58.2658 51.234 59 50.3893 59 49.3924V7.67064Z" stroke="#C8182F" stroke-width="2"/>
<path fill-rule="evenodd" clip-rule="evenodd" d="M44 40C48.9706 40 53 35.9706 53 31C53 26.0294 48.9706 22 44 22C39.0294 22 35 26.0294 35 31C35 35.9706 39.0294 40 44 40ZM49.7512 31.0654L44.3202 36.7735L42.4175 34.9632L42.4287 34.9514L38.6111 31.2746L40.433 29.383L44.2391 33.0487L47.8485 29.2551L49.7512 31.0654Z" fill="#C8182F"/>
<path d="M10.6541 39.3319L19.0962 42.166L19.1025 43.942L10.6809 46.8838L10.6752 45.2839L17.7874 43.0506L10.6596 40.8839L10.6541 39.3319ZM10.639 35.0569L19.0709 35.027L19.0761 36.499L10.6442 36.5289L10.639 35.0569ZM6.59366 35.8233C6.59256 35.5139 6.68767 35.2629 6.87899 35.0703C7.07031 34.8776 7.30997 34.7807 7.59796 34.7797C7.88596 34.7787 8.1263 34.8738 8.31898 35.0651C8.50099 35.2565 8.59255 35.5068 8.59365 35.8162C8.5947 36.1148 8.50491 36.3605 8.32426 36.5531C8.13294 36.7458 7.89328 36.8427 7.60528 36.8437C7.31729 36.8447 7.07695 36.7496 6.88427 36.5582C6.69159 36.3669 6.59472 36.1219 6.59366 35.8233ZM10.4241 28.606C10.422 28.03 10.5002 27.5124 10.6586 27.0532C10.8169 26.5939 11.0554 26.1558 11.3739 25.7386L12.3041 26.3593C12.0602 26.7442 11.8801 27.1128 11.764 27.4653C11.6479 27.807 11.5905 28.1699 11.5919 28.5539C11.5936 29.0339 11.6963 29.4122 11.8999 29.6888C12.0929 29.9654 12.3601 30.1032 12.7014 30.1019C13.0427 30.1007 13.3089 29.9718 13.5 29.7151C13.6911 29.4478 13.8761 28.9724 14.055 28.2891C14.2863 27.3496 14.6038 26.6498 15.0075 26.1897C15.4112 25.719 15.965 25.4823 16.669 25.4798C17.501 25.4769 18.1368 25.8 18.5765 26.4491C19.0161 27.0875 19.2375 27.8707 19.2408 28.7987C19.2454 30.0787 18.8811 31.1414 18.1481 31.9866L17.2493 31.2058C17.7908 30.4892 18.06 29.6989 18.0569 28.8349C18.055 28.2803 17.9414 27.8433 17.7163 27.5241C17.4805 27.1943 17.1652 27.0301 16.7705 27.0315C16.4825 27.0325 16.2534 27.092 16.0832 27.2099C15.9023 27.3279 15.7483 27.5311 15.6213 27.8196C15.4837 28.1081 15.3412 28.5299 15.1938 29.0851C14.9623 29.9819 14.65 30.6337 14.2567 31.0404C13.8635 31.4365 13.3628 31.6356 12.7549 31.6378C12.3175 31.6393 11.9224 31.5127 11.5695 31.258C11.2059 30.9926 10.9273 30.6309 10.7336 30.1729C10.5293 29.7043 10.4261 29.182 10.4241 28.606ZM17.0381 16.758C17.3794 16.7568 17.6352 16.6972 17.8055 16.5793C17.9651 16.4614 18.0871 16.2849 18.1716 16.05L19.1968 16.3823C19.145 16.8198 19.0236 17.1723 18.8325 17.4396C18.6415 17.707 18.3435 17.9054 17.9386 18.0348C18.7833 18.5971 19.2076 19.433 19.2115 20.5423C19.2145 21.3743 18.9821 22.0311 18.5145 22.5128C18.0469 22.9944 17.4344 23.2366 16.6771 23.2393C15.7811 23.2425 15.092 22.9249 14.6097 22.2866C14.1274 21.6377 13.8841 20.7212 13.8799 19.5372L13.8753 18.2412L13.2513 18.2434C12.654 18.2455 12.2279 18.3911 11.9729 18.68C11.7179 18.9689 11.5915 19.412 11.5936 20.0093C11.5958 20.628 11.7478 21.3848 12.0497 22.2797L10.979 22.6515C10.5913 21.6075 10.3958 20.6376 10.3926 19.7416C10.3891 18.7496 10.6318 18.0074 11.1207 17.515C11.599 17.0226 12.2861 16.7748 13.1821 16.7717L17.0381 16.758ZM18.1064 20.2102C18.1034 19.3676 17.6637 18.7078 16.7873 18.2309L14.8513 18.2377L14.8552 19.3417C14.8608 20.8991 15.4395 21.6757 16.5915 21.6716C17.0929 21.6698 17.4711 21.5458 17.7262 21.2996C17.9813 21.0533 18.1081 20.6902 18.1064 20.2102Z" fill="#C8182F"/>
</svg>
