<svg width="60" height="62" viewBox="0 0 60 62" fill="none" xmlns="http://www.w3.org/2000/svg">
<path d="M48.5389 33.769L59 27.0768V61H1V60.9188V60.8366V60.7545V60.6726V60.5908V60.5092V60.4277V60.3463V60.265V60.1839V60.1029V60.022V59.9413V59.8607V59.7803V59.6999V59.6197V59.5396V59.4597V59.3799V59.3002V59.2206V59.1411V59.0618V58.9826V58.9035V58.8246V58.7457V58.667V58.5884V58.51V58.4316V58.3534V58.2753V58.1973V58.1194V58.0417V57.964V57.8865V57.8091V57.7318V57.6546V57.5776V57.5006V57.4238V57.347V57.2704V57.1939V57.1175V57.0413V56.9651V56.889V56.8131V56.7372V56.6615V56.5858V56.5103V56.4349V56.3596V56.2843V56.2092V56.1342V56.0593V55.9845V55.9098V55.8352V55.7607V55.6863V55.612V55.5378V55.4637V55.3897V55.3158V55.242V55.1683V55.0946V55.0211V54.9477V54.8743V54.8011V54.7279V54.6549V54.5819V54.509V54.4362V54.3635V54.2909V54.2184V54.146V54.0736V54.0013V53.9292V53.8571V53.7851V53.7132V53.6413V53.5696V53.4979V53.4263V53.3548V53.2834V53.212V53.1408V53.0696V52.9985V52.9275V52.8565V52.7856V52.7148V52.6441V52.5735V52.5029V52.4324V52.362V52.2917V52.2214V52.1512V52.081V52.011V51.941V51.8711V51.8012V51.7314V51.6617V51.5921V51.5225V51.453V51.3836V51.3142V51.2449V51.1756V51.1064V51.0373V50.9682V50.8992V50.8303V50.7614V50.6926V50.6238V50.5551V50.4865V50.4179V50.3494V50.2809V50.2125V50.1442V50.0759V50.0076V49.9394V49.8713V49.8032V49.7352V49.6672V49.5993V49.5314V49.4636V49.3958V49.3281V49.2604V49.1928V49.1252V49.0576V48.9901V48.9227V48.8553V48.7879V48.7206V48.6534V48.5861V48.5189V48.4518V48.3847V48.3176V48.2506V48.1836V48.1167V48.0498V47.9829V47.9161V47.8493V47.7825V47.7158V47.6491V47.5825V47.5159V47.4493V47.3827V47.3162V47.2497V47.1833V47.1168V47.0504V46.9841V46.9177V46.8514V46.7851V46.7189V46.6527V46.5865V46.5203V46.4541V46.388V46.3219V46.2558V46.1897V46.1237V46.0577V45.9917V45.9257V45.8598V45.7938V45.7279V45.662V45.5961V45.5303V45.4644V45.3986V45.3328V45.267V45.2012V45.1354V45.0696V45.0039V44.9381V44.8724V44.8067V44.741V44.6753V44.6096V44.5439V44.4783V44.4126V44.3469V44.2813V44.2156V44.15V44.0844V44.0187V43.9531V43.8875V43.8219V43.7562V43.6906V43.625V43.5594V43.4938V43.4281V43.3625V43.2969V43.2313V43.1656V43.1V43.0344V42.9687V42.9031V42.8374V42.7717V42.7061V42.6404V42.5747V42.509V42.4433V42.3776V42.3119V42.2461V42.1804V42.1146V42.0488V41.983V41.9172V41.8514V41.7856V41.7197V41.6539V41.588V41.5221V41.4562V41.3902V41.3243V41.2583V41.1923V41.1263V41.0603V40.9942V40.9281V40.862V40.7959V40.7297V40.6635V40.5973V40.5311V40.4649V40.3986V40.3323V40.2659V40.1996V40.1332V40.0667V40.0003V39.9338V39.8673V39.8007V39.7341V39.6675V39.6009V39.5342V39.4675V39.4007V39.3339V39.2671V39.2002V39.1333V39.0664V38.9994V38.9324V38.8653V38.7982V38.7311V38.6639V38.5966V38.5294V38.4621V38.3947V38.3273V38.2599V38.1924V38.1248V38.0572V37.9896V37.9219V37.8542V37.7864V37.7186V37.6507V37.5828V37.5148V37.4468V37.3787V37.3106V37.2424V37.1741V37.1058V37.0375V36.9691V36.9006V36.8321V36.7635V36.6949V36.6262V36.5574V36.4886V36.4197V36.3508V36.2818V36.2127V36.1436V36.0744V36.0051V35.9358V35.8664V35.797V35.7275V35.6579V35.5883V35.5186V35.4488V35.3789V35.309V35.239V35.169V35.0988V35.0286V34.9583V34.888V34.8176V34.7471V34.6765V34.6059V34.5352V34.4644V34.3935V34.3225V34.2515V34.1804V34.1092V34.038V33.9666V33.8952V33.8237V33.7521V33.6804V33.6087V33.5368V33.4649V33.3929V33.3208V33.2487V33.1764V33.104V33.0316V32.9591V32.8865V32.8138V32.741V32.6681V32.5951V32.5221V32.4489V32.3757V32.3023V32.2289V32.1554V32.0817V32.008V31.9342V31.8603V31.7863V31.7122V31.638V31.5637V31.4893V31.4148V31.3402V31.2655V31.1907V31.1158V31.0408V30.9657V30.8904V30.8151V30.7397V30.6642V30.5885V30.5128V30.4369V30.361V30.2849V30.2087V30.1325V30.0561V29.9796V29.903V29.8262V29.7494V29.6724V29.5954V29.5182V29.4409V29.3635V29.286V29.2083V29.1306V29.0527V28.9747V28.8966V28.8184V28.74V28.6616V28.583V28.5043V28.4254V28.3465V28.2674V28.1882V28.1089V28.0294V27.9498V27.8701V27.7903V27.7104V27.6303V27.5501V27.4697V27.3893V27.3087V27.228V27.1471V27.0768L10.4611 33.1293L29.4611 45.284L30 45.6288L30.5389 45.284L48.5389 33.769Z" stroke="#C8182F" stroke-width="2"/>
<path d="M11 1H47.0286L47.9835 33.9463L29.9912 44.8364L11 33.7326V1Z" stroke="#C8182F" stroke-width="2"/>
<rect x="18" y="10" width="22" height="3" fill="#C8182F"/>
<rect x="18" y="15" width="22" height="3" fill="#C8182F"/>
<rect x="18" y="20" width="22" height="3" fill="#C8182F"/>
<rect x="18" y="26" width="22" height="3" fill="#C8182F"/>
</svg>
