<svg width="270" height="72" viewBox="0 0 270 72" fill="none" xmlns="http://www.w3.org/2000/svg">
<mask id="mask0" mask-type="alpha" maskUnits="userSpaceOnUse" x="0" y="0" width="93" height="72">
<path d="M0 36.2116V71.3258C0 71.3258 14.0284 63.3311 23.664 58.785C24.4989 58.3911 25.5061 60.3526 25.5061 60.3526C25.5061 60.3526 28.5925 67.2231 31.3159 66.1527C42.0851 61.9202 50.3038 53.7687 54.2714 52.9849C55.4809 52.746 56.822 55.0228 56.822 55.0228C56.822 55.0228 60.3623 62.5231 63.7653 60.8229C76.9435 54.239 92.9557 42.482 92.9557 42.482V0L86.2958 4.23252C86.2958 4.23252 77.2269 10.1894 68.2998 14.4219C59.3726 18.6544 59.7977 15.049 56.2552 12.5408C52.7127 10.0326 35.0001 22.5735 29.6155 26.0222C24.2308 29.4709 27.2065 19.1247 21.5385 22.4167C15.8705 25.7087 0 36.2116 0 36.2116Z" fill="#C61E2F"/>
</mask>
<g mask="url(#mask0)">
<rect x="0.28125" y="16.1462" width="28.6236" height="59.2553" fill="url(#paint0_linear)"/>
<rect x="28.9062" y="9.2489" width="29.7572" height="59.2553" fill="url(#paint1_linear)"/>
<rect x="58.0977" y="-2.03796" width="36.8422" height="63.6446" fill="url(#paint2_linear)"/>
</g>
<path fill-rule="evenodd" clip-rule="evenodd" d="M8.75594 39.559C8.24177 39.9164 7.93936 40.5063 7.94946 41.1324L8.16977 54.7872C8.19352 56.2589 9.82338 57.1332 11.0626 56.3389L18.1208 51.8152C18.6599 51.4697 18.986 50.8734 18.986 50.2331V36.0437C18.986 34.5264 17.2805 33.6348 16.0345 34.5007L8.75594 39.559ZM11.4774 41.376C11.2112 41.5523 11.0527 41.8519 11.0567 42.1712L11.1707 51.1549C11.18 51.8882 11.9883 52.3286 12.6095 51.9389L15.9947 49.8149C16.2686 49.643 16.4349 49.3424 16.4349 49.019V39.842C16.4349 39.0929 15.6011 38.645 14.9766 39.0587L11.4774 41.376Z" fill="white"/>
<path fill-rule="evenodd" clip-rule="evenodd" d="M35.7109 32.3923L46.2627 26.7259C47.5145 26.0536 49.0308 26.9604 49.0308 28.3813V33.9163C49.0308 34.5834 48.6771 35.2005 48.1016 35.5377L35.7109 42.7965V32.3923ZM45.631 30.4115L39.1128 33.8378V39.0333L45.631 35.5845V30.4115Z" fill="white"/>
<path fill-rule="evenodd" clip-rule="evenodd" d="M46.2198 36.6373L35.7109 42.6389V53.5297L48.1387 45.8591C48.6932 45.5169 49.0308 44.9118 49.0308 44.2601V38.2691C49.0308 36.8265 47.4725 35.9219 46.2198 36.6373ZM46.4798 38.7942L39.3948 42.6908V47.8863L46.4798 43.6186V38.7942Z" fill="white"/>
<path fill-rule="evenodd" clip-rule="evenodd" d="M71.9675 22.8337L68.0156 25.2383V46.8712L82.1857 38.4061V16.6165L78.2178 19.0308V36.6818L71.9675 40.6008V22.8337Z" fill="white"/>
<path d="M81.0547 36.4731L85.0223 33.7034V40.7032L81.0547 43.4225V36.4731Z" fill="white"/>
<path d="M113.292 5.96C115.66 5.96 117.5 6.72 118.812 8.24C120.14 9.76 120.804 11.904 120.804 14.672C120.804 16.48 120.5 18.04 119.892 19.352C119.3 20.664 118.436 21.672 117.3 22.376C116.18 23.064 114.844 23.408 113.292 23.408C111.74 23.408 110.404 23.064 109.284 22.376C108.164 21.688 107.3 20.696 106.692 19.4C106.1 18.088 105.804 16.512 105.804 14.672C105.804 12.88 106.1 11.328 106.692 10.016C107.3 8.704 108.164 7.704 109.284 7.016C110.404 6.312 111.74 5.96 113.292 5.96ZM113.292 8.84C112.156 8.84 111.308 9.304 110.748 10.232C110.204 11.144 109.932 12.624 109.932 14.672C109.932 16.72 110.212 18.208 110.772 19.136C111.332 20.064 112.172 20.528 113.292 20.528C114.444 20.528 115.292 20.072 115.836 19.16C116.396 18.232 116.676 16.736 116.676 14.672C116.676 12.608 116.396 11.12 115.836 10.208C115.276 9.296 114.428 8.84 113.292 8.84ZM136.318 9.848C139.246 9.848 140.71 12.112 140.71 16.64C140.71 18.016 140.526 19.216 140.158 20.24C139.79 21.248 139.262 22.032 138.574 22.592C137.902 23.136 137.11 23.408 136.198 23.408C135.03 23.408 134.07 22.944 133.318 22.016V27.92L129.766 28.328V22.016C129.014 22.944 128.03 23.408 126.814 23.408C125.918 23.408 125.134 23.136 124.462 22.592C123.806 22.032 123.294 21.248 122.926 20.24C122.558 19.216 122.374 18.016 122.374 16.64C122.374 14.48 122.75 12.808 123.502 11.624C124.254 10.44 125.374 9.848 126.862 9.848C128.03 9.848 128.998 10.272 129.766 11.12V4.784L133.318 5.192V11.144C134.102 10.28 135.102 9.848 136.318 9.848ZM127.966 20.672C128.318 20.672 128.63 20.584 128.902 20.408C129.19 20.232 129.478 19.952 129.766 19.568V13.64C129.222 12.936 128.622 12.584 127.966 12.584C127.39 12.584 126.958 12.896 126.67 13.52C126.382 14.144 126.238 15.184 126.238 16.64C126.238 18.048 126.382 19.072 126.67 19.712C126.974 20.352 127.406 20.672 127.966 20.672ZM135.094 20.672C135.67 20.672 136.102 20.36 136.39 19.736C136.694 19.096 136.846 18.064 136.846 16.64C136.846 15.168 136.71 14.128 136.438 13.52C136.166 12.896 135.734 12.584 135.142 12.584C134.79 12.584 134.47 12.68 134.182 12.872C133.894 13.048 133.606 13.312 133.318 13.664V19.592C133.574 19.96 133.838 20.232 134.11 20.408C134.398 20.584 134.726 20.672 135.094 20.672ZM154.172 23H150.572V18.464C150.572 17.568 150.62 16.72 150.716 15.92C150.812 15.12 150.932 14.448 151.076 13.904L146.828 23H142.964V10.256H146.588V14.864C146.588 15.712 146.532 16.544 146.42 17.36C146.324 18.176 146.212 18.848 146.084 19.376L150.284 10.256H154.172V23ZM167.895 20.216H169.815V26.984H167.175L166.743 23H157.023V10.256H160.815V20.192H164.103V10.256H167.895V20.216ZM182.361 23H178.761V18.464C178.761 17.568 178.809 16.72 178.905 15.92C179.001 15.12 179.121 14.448 179.265 13.904L175.017 23H171.153V10.256H174.777V14.864C174.777 15.712 174.721 16.544 174.609 17.36C174.513 18.176 174.401 18.848 174.273 19.376L178.473 10.256H182.361V23ZM195.341 19.304C195.341 19.784 195.405 20.136 195.533 20.36C195.677 20.584 195.901 20.752 196.205 20.864L195.413 23.336C194.629 23.272 193.989 23.104 193.493 22.832C192.997 22.544 192.613 22.096 192.341 21.488C191.509 22.768 190.229 23.408 188.501 23.408C187.237 23.408 186.229 23.04 185.477 22.304C184.725 21.568 184.349 20.608 184.349 19.424C184.349 18.032 184.861 16.968 185.885 16.232C186.909 15.496 188.389 15.128 190.325 15.128H191.621V14.576C191.621 13.824 191.461 13.312 191.141 13.04C190.821 12.752 190.261 12.608 189.461 12.608C189.045 12.608 188.541 12.672 187.949 12.8C187.357 12.912 186.749 13.072 186.125 13.28L185.261 10.784C186.061 10.48 186.877 10.248 187.709 10.088C188.557 9.928 189.341 9.848 190.061 9.848C191.885 9.848 193.221 10.224 194.069 10.976C194.917 11.728 195.341 12.856 195.341 14.36V19.304ZM189.605 20.696C190.469 20.696 191.141 20.288 191.621 19.472V17.216H190.685C189.821 17.216 189.173 17.368 188.741 17.672C188.325 17.976 188.117 18.448 188.117 19.088C188.117 19.6 188.245 20 188.501 20.288C188.773 20.56 189.141 20.696 189.605 20.696ZM208.945 10.256V23H205.153V13.04H202.729L202.489 15.752C202.313 17.624 202.105 19.024 201.865 19.952C201.641 20.864 201.241 21.584 200.665 22.112C200.089 22.64 199.209 23.04 198.025 23.312L197.089 20.552C197.617 20.312 197.985 20.064 198.193 19.808C198.417 19.536 198.585 19.112 198.697 18.536C198.809 17.944 198.913 16.952 199.009 15.56L199.393 10.256H208.945ZM216.513 14.216C218.577 14.216 220.081 14.592 221.025 15.344C221.985 16.08 222.465 17.176 222.465 18.632C222.465 20.04 221.969 21.12 220.977 21.872C219.985 22.624 218.681 23 217.065 23H211.809V10.256H215.601V14.216H216.513ZM216.657 20.504C217.953 20.504 218.601 19.856 218.601 18.56C218.601 17.904 218.433 17.424 218.097 17.12C217.777 16.8 217.225 16.64 216.441 16.64H215.601V20.504H216.657ZM231.524 23V17.936H228.02V23H224.228V10.256H228.02V15.128H231.524V10.256H235.316V23H231.524ZM242.634 14.216C244.698 14.216 246.202 14.592 247.146 15.344C248.106 16.08 248.586 17.176 248.586 18.632C248.586 20.04 248.09 21.12 247.098 21.872C246.106 22.624 244.802 23 243.186 23H238.17V10.256H241.962V14.216H242.634ZM249.666 10.256H253.458V23H249.666V10.256ZM242.778 20.504C244.074 20.504 244.722 19.856 244.722 18.56C244.722 17.904 244.554 17.424 244.218 17.12C243.898 16.8 243.346 16.64 242.562 16.64H241.962V20.504H242.778ZM267.516 23H263.916V18.464C263.916 17.568 263.964 16.72 264.06 15.92C264.156 15.12 264.276 14.448 264.42 13.904L260.172 23H256.308V10.256H259.932V14.864C259.932 15.712 259.876 16.544 259.764 17.36C259.668 18.176 259.556 18.848 259.428 19.376L263.628 10.256H267.516V23ZM261.9 7.832C260.668 7.832 259.692 7.496 258.972 6.824C258.268 6.152 257.868 5.256 257.772 4.136L259.86 3.752C260.004 4.264 260.236 4.632 260.556 4.856C260.892 5.08 261.34 5.192 261.9 5.192C262.46 5.192 262.9 5.08 263.22 4.856C263.556 4.632 263.804 4.264 263.964 3.752L266.052 4.136C265.956 5.256 265.548 6.152 264.828 6.824C264.108 7.496 263.132 7.832 261.9 7.832Z" fill="#C8182F"/>
<path d="M112.403 49.422C114.458 49.6213 115.485 50.572 115.485 52.274C115.485 53.5467 115.017 54.4897 114.082 55.103C113.162 55.701 111.928 56 110.379 56H106.009V44.04C107.435 43.7487 108.761 43.603 109.988 43.603C111.491 43.603 112.679 43.8867 113.553 44.454C114.427 45.0213 114.864 45.834 114.864 46.892C114.864 47.582 114.657 48.1417 114.243 48.571C113.829 49.0003 113.216 49.284 112.403 49.422ZM110.011 45.236C109.367 45.236 108.738 45.282 108.125 45.374V48.801H110.402C111.138 48.801 111.705 48.663 112.104 48.387C112.503 48.111 112.702 47.6433 112.702 46.984C112.702 46.3707 112.48 45.926 112.035 45.65C111.59 45.374 110.916 45.236 110.011 45.236ZM110.379 54.344C111.284 54.344 111.989 54.1907 112.495 53.884C113.001 53.5773 113.254 53.0253 113.254 52.228C113.254 51.5687 113.039 51.0933 112.61 50.802C112.181 50.5107 111.452 50.365 110.425 50.365H108.125V54.344H110.379ZM128.537 56H126.444V50.526C126.444 49.606 126.474 48.732 126.536 47.904C126.597 47.076 126.651 46.5317 126.697 46.271L121.614 56H119.107V43.879H121.2V49.353C121.2 50.1657 121.169 51.009 121.108 51.883C121.046 52.7417 121 53.2937 120.97 53.539L125.984 43.879H128.537V56ZM136.003 43.603C136.769 43.603 137.482 43.7333 138.142 43.994C138.816 44.2393 139.353 44.6073 139.752 45.098C140.166 45.5887 140.373 46.179 140.373 46.869C140.373 47.5437 140.173 48.0957 139.775 48.525C139.391 48.9543 138.778 49.284 137.935 49.514C138.947 49.6827 139.713 49.997 140.235 50.457C140.756 50.917 141.017 51.5763 141.017 52.435C141.017 53.6923 140.526 54.6507 139.545 55.31C138.579 55.954 137.344 56.276 135.842 56.276C134.017 56.276 132.461 55.77 131.173 54.758L132.277 53.447C132.813 53.8303 133.35 54.114 133.887 54.298C134.439 54.482 135.067 54.574 135.773 54.574C137.751 54.574 138.74 53.8533 138.74 52.412C138.74 51.7067 138.456 51.216 137.889 50.94C137.337 50.6487 136.562 50.503 135.566 50.503H133.956L134.094 48.847H135.336C136.194 48.847 136.884 48.6937 137.406 48.387C137.927 48.0803 138.188 47.605 138.188 46.961C138.188 46.363 137.965 45.9337 137.521 45.673C137.076 45.397 136.493 45.259 135.773 45.259C135.144 45.259 134.584 45.3433 134.094 45.512C133.618 45.6653 133.135 45.9107 132.645 46.248L131.633 44.983C132.246 44.523 132.905 44.178 133.611 43.948C134.316 43.718 135.113 43.603 136.003 43.603ZM149.092 43.603C150.794 43.603 152.112 44.1703 153.048 45.305C153.998 46.4397 154.474 47.9807 154.474 49.928C154.474 51.1853 154.259 52.297 153.83 53.263C153.4 54.2137 152.779 54.9573 151.967 55.494C151.154 56.0153 150.188 56.276 149.069 56.276C147.367 56.276 146.04 55.7087 145.09 54.574C144.139 53.4393 143.664 51.8983 143.664 49.951C143.664 48.6937 143.878 47.5897 144.308 46.639C144.737 45.673 145.358 44.9293 146.171 44.408C146.983 43.8713 147.957 43.603 149.092 43.603ZM149.092 45.305C146.991 45.305 145.941 46.8537 145.941 49.951C145.941 53.033 146.983 54.574 149.069 54.574C151.154 54.574 152.197 53.0253 152.197 49.928C152.197 46.846 151.162 45.305 149.092 45.305ZM164.478 49.422C166.533 49.6213 167.56 50.572 167.56 52.274C167.56 53.5467 167.093 54.4897 166.157 55.103C165.237 55.701 164.003 56 162.454 56H158.084V44.04C159.51 43.7487 160.837 43.603 162.063 43.603C163.566 43.603 164.754 43.8867 165.628 44.454C166.502 45.0213 166.939 45.834 166.939 46.892C166.939 47.582 166.732 48.1417 166.318 48.571C165.904 49.0003 165.291 49.284 164.478 49.422ZM162.086 45.236C161.442 45.236 160.814 45.282 160.2 45.374V48.801H162.477C163.213 48.801 163.781 48.663 164.179 48.387C164.578 48.111 164.777 47.6433 164.777 46.984C164.777 46.3707 164.555 45.926 164.11 45.65C163.666 45.374 162.991 45.236 162.086 45.236ZM162.454 54.344C163.359 54.344 164.064 54.1907 164.57 53.884C165.076 53.5773 165.329 53.0253 165.329 52.228C165.329 51.5687 165.115 51.0933 164.685 50.802C164.256 50.5107 163.528 50.365 162.5 50.365H160.2V54.344H162.454ZM174.678 47.789C176.487 47.789 177.798 48.1417 178.611 48.847C179.423 49.5523 179.83 50.5567 179.83 51.86C179.83 53.2247 179.37 54.2597 178.45 54.965C177.545 55.655 176.418 56 175.069 56H171.182V43.879H173.298V47.789H174.678ZM181.578 43.879H183.694V56H181.578V43.879ZM174.885 54.344C175.743 54.344 176.403 54.1523 176.863 53.769C177.338 53.3857 177.576 52.7493 177.576 51.86C177.576 51.0167 177.353 50.3957 176.909 49.997C176.479 49.5983 175.728 49.399 174.655 49.399H173.298V54.344H174.885ZM197.617 56H195.524V50.526C195.524 49.606 195.555 48.732 195.616 47.904C195.678 47.076 195.731 46.5317 195.777 46.271L190.694 56H188.187V43.879H190.28V49.353C190.28 50.1657 190.25 51.009 190.188 51.883C190.127 52.7417 190.081 53.2937 190.05 53.539L195.064 43.879H197.617V56ZM192.856 41.211C191.921 41.211 191.131 40.9733 190.487 40.498C189.859 40.0073 189.498 39.348 189.406 38.52L190.809 38.221C190.963 38.7117 191.2 39.0643 191.522 39.279C191.86 39.4937 192.304 39.601 192.856 39.601C193.408 39.601 193.861 39.4937 194.213 39.279C194.566 39.049 194.819 38.6963 194.972 38.221L196.375 38.52C196.283 39.348 195.908 40.0073 195.248 40.498C194.604 40.9733 193.807 41.211 192.856 41.211ZM217.38 54.298H219.22V59.45H217.495L217.15 56H208.295V43.879H210.411V54.275H215.264V43.879H217.38V54.298ZM230.794 49.583C230.794 49.9357 230.778 50.296 230.748 50.664H223.02C223.112 51.998 223.449 52.9793 224.032 53.608C224.614 54.2367 225.366 54.551 226.286 54.551C226.868 54.551 227.405 54.4667 227.896 54.298C228.386 54.1293 228.9 53.861 229.437 53.493L230.357 54.758C229.069 55.77 227.658 56.276 226.125 56.276C224.438 56.276 223.119 55.724 222.169 54.62C221.233 53.516 220.766 51.998 220.766 50.066C220.766 48.8087 220.965 47.697 221.364 46.731C221.778 45.7497 222.36 44.983 223.112 44.431C223.878 43.879 224.775 43.603 225.803 43.603C227.413 43.603 228.647 44.132 229.506 45.19C230.364 46.248 230.794 47.7123 230.794 49.583ZM228.701 48.962C228.701 47.766 228.463 46.8537 227.988 46.225C227.512 45.5963 226.799 45.282 225.849 45.282C224.116 45.282 223.173 46.5547 223.02 49.1H228.701V48.962ZM241.441 56V50.664H236.404V56H234.288V43.879H236.404V48.962H241.441V43.879H243.557V56H241.441ZM256.225 43.879L255.972 45.604H252.085V56H249.969V45.604H245.967V43.879H256.225ZM264.095 43.603C265.643 43.603 266.778 44.155 267.499 45.259C268.219 46.363 268.58 47.9193 268.58 49.928C268.58 51.8293 268.166 53.3627 267.338 54.528C266.51 55.6933 265.337 56.276 263.819 56.276C262.469 56.276 261.411 55.816 260.645 54.896V60.646L258.529 60.899V43.879H260.346L260.507 45.512C260.951 44.8987 261.488 44.431 262.117 44.109C262.745 43.7717 263.405 43.603 264.095 43.603ZM263.313 54.551C265.306 54.551 266.303 53.01 266.303 49.928C266.303 46.8307 265.39 45.282 263.566 45.282C262.968 45.282 262.423 45.4583 261.933 45.811C261.442 46.1637 261.013 46.616 260.645 47.168V53.079C260.951 53.5543 261.335 53.9223 261.795 54.183C262.255 54.4283 262.761 54.551 263.313 54.551Z" fill="#C8182F"/>
<defs>
<linearGradient id="paint0_linear" x1="-0.994058" y1="58.9417" x2="31.3137" y2="58.9417" gradientUnits="userSpaceOnUse">
<stop stop-color="#EF6876"/>
<stop offset="1" stop-color="#94020D"/>
</linearGradient>
<linearGradient id="paint1_linear" x1="27.5804" y1="52.0444" x2="61.1677" y2="52.0444" gradientUnits="userSpaceOnUse">
<stop stop-color="#EF6876"/>
<stop offset="1" stop-color="#94020D"/>
</linearGradient>
<linearGradient id="paint2_linear" x1="56.4562" y1="43.9276" x2="98.0404" y2="43.9276" gradientUnits="userSpaceOnUse">
<stop stop-color="#EF6876"/>
<stop offset="1" stop-color="#94020D"/>
</linearGradient>
</defs>
</svg>
